<svg width="24" height="24" viewBox="0 0 24 24" fill="none" xmlns="http://www.w3.org/2000/svg">
<circle cx="12" cy="12" r="11" stroke="black" stroke-width="2"/>
<mask id="path-2-inside-1" fill="white">
<path fill-rule="evenodd" clip-rule="evenodd" d="M3 19.9375V19.5C3 16.5075 8.99625 15 12 15C15.0037 15 21 16.5075 21 19.5V19.9375C18.8012 22.4287 15.5841 24 12 24C8.41592 24 5.19883 22.4287 3 19.9375ZM12 5C9.51375 5 7.5 7.01375 7.5 9.5C7.5 11.9862 9.51375 14 12 14C14.4862 14 16.5 11.9862 16.5 9.5C16.5 7.01375 14.4862 5 12 5Z"/>
</mask>
<path d="M3 19.9375H1V20.6939L1.50052 21.2609L3 19.9375ZM21 19.9375L22.4995 21.2609L23 20.6939V19.9375H21ZM5 19.9375V19.5H1V19.9375H5ZM5 19.5C5 19.4864 4.99091 19.3266 5.3403 19.0041C5.70328 18.6691 6.30213 18.311 7.11734 17.9844C8.75096 17.33 10.7481 17 12 17V13C10.2481 13 7.74529 13.4238 5.62985 14.2712C4.57053 14.6956 3.48258 15.2754 2.62739 16.0647C1.75862 16.8665 1 18.0173 1 19.5H5ZM12 17C13.2519 17 15.249 17.33 16.8827 17.9844C17.6979 18.311 18.2967 18.6691 18.6597 19.0041C19.0091 19.3266 19 19.4864 19 19.5H23C23 18.0173 22.2414 16.8665 21.3726 16.0647C20.5174 15.2754 19.4295 14.6956 18.3701 14.2712C16.2547 13.4238 13.7519 13 12 13V17ZM19 19.5V19.9375H23V19.5H19ZM19.5005 18.614C17.6652 20.6934 14.9864 22 12 22V26C16.1817 26 19.9371 24.1641 22.4995 21.2609L19.5005 18.614ZM12 22C9.01355 22 6.33477 20.6934 4.49948 18.614L1.50052 21.2609C4.0629 24.1641 7.81829 26 12 26V22ZM9.5 9.5C9.5 8.11832 10.6183 7 12 7V3C8.40918 3 5.5 5.90918 5.5 9.5H9.5ZM12 12C10.6183 12 9.5 10.8817 9.5 9.5H5.5C5.5 13.0908 8.40918 16 12 16V12ZM14.5 9.5C14.5 10.8817 13.3817 12 12 12V16C15.5908 16 18.5 13.0908 18.5 9.5H14.5ZM12 7C13.3817 7 14.5 8.11832 14.5 9.5H18.5C18.5 5.90918 15.5908 3 12 3V7Z" fill="black" mask="url(#path-2-inside-1)"/>
</svg>
